0
SECTION
2
HEADER
9
$ACADVER
1
AC1009
9
$LUNITS
70
2
9
$LUPREC
70
8
9
$INSBASE
10
0
20
0
30
0
9
$EXTMIN
10
30
20
-80
30
0
9
$EXTMAX
10
110
20
-40
30
0
0
ENDSEC
0
SECTION
2
TABLES
0
TABLE
2
LTYPE
70
1
0
LTYPE
2
CONTINUOUS
70
0
3
Solid line
72
65
73
0
40
0
0
ENDTAB
0
TABLE
2
LAYER
70
2
0
LAYER
2
0
70
0
62
7
6
CONTINUOUS
0
LAYER
2
CUTLINE
70
0
62
1
6
CONTINUOUS
0
ENDTAB
0
TABLE
2
STYLE
70
1
0
STYLE
2
STANDARD
70
0
40
0
41
1
50
0
71
0
42
1
3
txt
4

0
ENDTAB
0
ENDSEC
0
SECTION
2
ENTITIES
0
LINE
8
CUTLINE
6
CONTINUOUS
62
1
10
30
20
-60
30
0
11
30.10325775
21
-57.95511618
31
0
0
LINE
8
CUTLINE
6
CONTINUOUS
62
1
10
30.10325775
20
-57.95511618
30
0
11
30.40632892
21
-55.96930241
31
0
0
LINE
8
CUTLINE
6
CONTINUOUS
62
1
10
30.40632892
20
-55.96930241
30
0
11
30.89916041
21
-54.05261179
31
0
0
LINE
8
CUTLINE
6
CONTINUOUS
62
1
10
30.89916041
20
-54.05261179
30
0
11
31.57169914
21
-52.21509742
31
0
0
LINE
8
CUTLINE
6
CONTINUOUS
62
1
10
31.57169914
20
-52.21509742
30
0
11
32.413892
21
-50.4668124
31
0
0
LINE
8
CUTLINE
6
CONTINUOUS
62
1
10
32.413892
20
-50.4668124
30
0
11
33.41568589
21
-48.81780982
31
0
0
LINE
8
CUTLINE
6
CONTINUOUS
62
1
10
33.41568589
20
-48.81780982
30
0
11
34.56702771
21
-47.27814278
31
0
0
LINE
8
CUTLINE
6
CONTINUOUS
62
1
10
34.56702771
20
-47.27814278
30
0
11
35.85786438
21
-45.85786438
31
0
0
LINE
8
CUTLINE
6
CONTINUOUS
62
1
10
35.85786438
20
-45.85786438
30
0
11
37.27814278
21
-44.56702771
31
0
0
LINE
8
CUTLINE
6
CONTINUOUS
62
1
10
37.27814278
20
-44.56702771
30
0
11
38.81780982
21
-43.41568589
31
0
0
LINE
8
CUTLINE
6
CONTINUOUS
62
1
10
38.81780982
20
-43.41568589
30
0
11
40.4668124
21
-42.413892
31
0
0
LINE
8
CUTLINE
6
CONTINUOUS
62
1
10
40.4668124
20
-42.413892
30
0
11
42.21509742
21
-41.57169914
31
0
0
LINE
8
CUTLINE
6
CONTINUOUS
62
1
10
42.21509742
20
-41.57169914
30
0
11
44.05261179
21
-40.89916041
31
0
0
LINE
8
CUTLINE
6
CONTINUOUS
62
1
10
44.05261179
20
-40.89916041
30
0
11
45.96930241
21
-40.40632892
31
0
0
LINE
8
CUTLINE
6
CONTINUOUS
62
1
10
45.96930241
20
-40.40632892
30
0
11
47.95511618
21
-40.10325775
31
0
0
LINE
8
CUTLINE
6
CONTINUOUS
62
1
10
47.95511618
20
-40.10325775
30
0
11
50
21
-40
31
0
0
LINE
8
CUTLINE
6
CONTINUOUS
62
1
10
50
20
-40
30
0
11
52.04488382
21
-40.10325775
31
0
0
LINE
8
CUTLINE
6
CONTINUOUS
62
1
10
52.04488382
20
-40.10325775
30
0
11
54.03069759
21
-40.40632892
31
0
0
LINE
8
CUTLINE
6
CONTINUOUS
62
1
10
54.03069759
20
-40.40632892
30
0
11
55.94738821
21
-40.89916041
31
0
0
LINE
8
CUTLINE
6
CONTINUOUS
62
1
10
55.94738821
20
-40.89916041
30
0
11
57.78490258
21
-41.57169914
31
0
0
LINE
8
CUTLINE
6
CONTINUOUS
62
1
10
57.78490258
20
-41.57169914
30
0
11
59.5331876
21
-42.413892
31
0
0
LINE
8
CUTLINE
6
CONTINUOUS
62
1
10
59.5331876
20
-42.413892
30
0
11
61.18219018
21
-43.41568589
31
0
0
LINE
8
CUTLINE
6
CONTINUOUS
62
1
10
61.18219018
20
-43.41568589
30
0
11
62.72185722
21
-44.56702771
31
0
0
LINE
8
CUTLINE
6
CONTINUOUS
62
1
10
62.72185722
20
-44.56702771
30
0
11
64.14213562
21
-45.85786438
31
0
0
LINE
8
CUTLINE
6
CONTINUOUS
62
1
10
64.14213562
20
-45.85786438
30
0
11
65.43297229
21
-47.27814278
31
0
0
LINE
8
CUTLINE
6
CONTINUOUS
62
1
10
65.43297229
20
-47.27814278
30
0
11
66.58431411
21
-48.81780982
31
0
0
LINE
8
CUTLINE
6
CONTINUOUS
62
1
10
66.58431411
20
-48.81780982
30
0
11
67.586108
21
-50.4668124
31
0
0
LINE
8
CUTLINE
6
CONTINUOUS
62
1
10
67.586108
20
-50.4668124
30
0
11
68.42830086
21
-52.21509742
31
0
0
LINE
8
CUTLINE
6
CONTINUOUS
62
1
10
68.42830086
20
-52.21509742
30
0
11
69.10083959
21
-54.05261179
31
0
0
LINE
8
CUTLINE
6
CONTINUOUS
62
1
10
69.10083959
20
-54.05261179
30
0
11
69.59367108
21
-55.96930241
31
0
0
LINE
8
CUTLINE
6
CONTINUOUS
62
1
10
69.59367108
20
-55.96930241
30
0
11
69.89674225
21
-57.95511618
31
0
0
LINE
8
CUTLINE
6
CONTINUOUS
62
1
10
69.89674225
20
-57.95511618
30
0
11
70
21
-60
31
0
0
LINE
8
CUTLINE
6
CONTINUOUS
62
1
10
70
20
-60
30
0
11
69.89674225
21
-62.04488382
31
0
0
LINE
8
CUTLINE
6
CONTINUOUS
62
1
10
69.89674225
20
-62.04488382
30
0
11
69.59367108
21
-64.03069759
31
0
0
LINE
8
CUTLINE
6
CONTINUOUS
62
1
10
69.59367108
20
-64.03069759
30
0
11
69.10083959
21
-65.94738821
31
0
0
LINE
8
CUTLINE
6
CONTINUOUS
62
1
10
69.10083959
20
-65.94738821
30
0
11
68.42830086
21
-67.78490258
31
0
0
LINE
8
CUTLINE
6
CONTINUOUS
62
1
10
68.42830086
20
-67.78490258
30
0
11
67.586108
21
-69.5331876
31
0
0
LINE
8
CUTLINE
6
CONTINUOUS
62
1
10
67.586108
20
-69.5331876
30
0
11
66.58431411
21
-71.18219018
31
0
0
LINE
8
CUTLINE
6
CONTINUOUS
62
1
10
66.58431411
20
-71.18219018
30
0
11
65.43297229
21
-72.72185722
31
0
0
LINE
8
CUTLINE
6
CONTINUOUS
62
1
10
65.43297229
20
-72.72185722
30
0
11
64.14213562
21
-74.14213562
31
0
0
LINE
8
CUTLINE
6
CONTINUOUS
62
1
10
64.14213562
20
-74.14213562
30
0
11
62.72185722
21
-75.43297229
31
0
0
LINE
8
CUTLINE
6
CONTINUOUS
62
1
10
62.72185722
20
-75.43297229
30
0
11
61.18219018
21
-76.58431411
31
0
0
LINE
8
CUTLINE
6
CONTINUOUS
62
1
10
61.18219018
20
-76.58431411
30
0
11
59.5331876
21
-77.586108
31
0
0
LINE
8
CUTLINE
6
CONTINUOUS
62
1
10
59.5331876
20
-77.586108
30
0
11
57.78490258
21
-78.42830086
31
0
0
LINE
8
CUTLINE
6
CONTINUOUS
62
1
10
57.78490258
20
-78.42830086
30
0
11
55.94738821
21
-79.10083959
31
0
0
LINE
8
CUTLINE
6
CONTINUOUS
62
1
10
55.94738821
20
-79.10083959
30
0
11
54.03069759
21
-79.59367108
31
0
0
LINE
8
CUTLINE
6
CONTINUOUS
62
1
10
54.03069759
20
-79.59367108
30
0
11
52.04488382
21
-79.89674225
31
0
0
LINE
8
CUTLINE
6
CONTINUOUS
62
1
10
52.04488382
20
-79.89674225
30
0
11
50
21
-80
31
0
0
LINE
8
CUTLINE
6
CONTINUOUS
62
1
10
50
20
-80
30
0
11
47.95511618
21
-79.89674225
31
0
0
LINE
8
CUTLINE
6
CONTINUOUS
62
1
10
47.95511618
20
-79.89674225
30
0
11
45.96930241
21
-79.59367108
31
0
0
LINE
8
CUTLINE
6
CONTINUOUS
62
1
10
45.96930241
20
-79.59367108
30
0
11
44.05261179
21
-79.10083959
31
0
0
LINE
8
CUTLINE
6
CONTINUOUS
62
1
10
44.05261179
20
-79.10083959
30
0
11
42.21509742
21
-78.42830086
31
0
0
LINE
8
CUTLINE
6
CONTINUOUS
62
1
10
42.21509742
20
-78.42830086
30
0
11
40.4668124
21
-77.586108
31
0
0
LINE
8
CUTLINE
6
CONTINUOUS
62
1
10
40.4668124
20
-77.586108
30
0
11
38.81780982
21
-76.58431411
31
0
0
LINE
8
CUTLINE
6
CONTINUOUS
62
1
10
38.81780982
20
-76.58431411
30
0
11
37.27814278
21
-75.43297229
31
0
0
LINE
8
CUTLINE
6
CONTINUOUS
62
1
10
37.27814278
20
-75.43297229
30
0
11
35.85786438
21
-74.14213562
31
0
0
LINE
8
CUTLINE
6
CONTINUOUS
62
1
10
35.85786438
20
-74.14213562
30
0
11
34.56702771
21
-72.72185722
31
0
0
LINE
8
CUTLINE
6
CONTINUOUS
62
1
10
34.56702771
20
-72.72185722
30
0
11
33.41568589
21
-71.18219018
31
0
0
LINE
8
CUTLINE
6
CONTINUOUS
62
1
10
33.41568589
20
-71.18219018
30
0
11
32.413892
21
-69.5331876
31
0
0
LINE
8
CUTLINE
6
CONTINUOUS
62
1
10
32.413892
20
-69.5331876
30
0
11
31.57169914
21
-67.78490258
31
0
0
LINE
8
CUTLINE
6
CONTINUOUS
62
1
10
31.57169914
20
-67.78490258
30
0
11
30.89916041
21
-65.94738821
31
0
0
LINE
8
CUTLINE
6
CONTINUOUS
62
1
10
30.89916041
20
-65.94738821
30
0
11
30.40632892
21
-64.03069759
31
0
0
LINE
8
CUTLINE
6
CONTINUOUS
62
1
10
30.40632892
20
-64.03069759
30
0
11
30.10325775
21
-62.04488382
31
0
0
LINE
8
CUTLINE
6
CONTINUOUS
62
1
10
30.10325775
20
-62.04488382
30
0
11
30
21
-60
31
0
0
LINE
8
CUTLINE
6
CONTINUOUS
62
1
10
110
20
-60
30
0
11
109.94837113
21
-61.02244191
31
0
0
LINE
8
CUTLINE
6
CONTINUOUS
62
1
10
109.94837113
20
-61.02244191
30
0
11
109.79683554
21
-62.01534879
31
0
0
LINE
8
CUTLINE
6
CONTINUOUS
62
1
10
109.79683554
20
-62.01534879
30
0
11
109.55041979
21
-62.9736941
31
0
0
LINE
8
CUTLINE
6
CONTINUOUS
62
1
10
109.55041979
20
-62.9736941
30
0
11
109.21415043
21
-63.89245129
31
0
0
LINE
8
CUTLINE
6
CONTINUOUS
62
1
10
109.21415043
20
-63.89245129
30
0
11
108.29215706
21
-65.59109509
31
0
0
LINE
8
CUTLINE
6
CONTINUOUS
62
1
10
108.29215706
20
-65.59109509
30
0
11
107.07106781
21
-67.07106781
31
0
0
LINE
8
CUTLINE
6
CONTINUOUS
62
1
10
107.07106781
20
-67.07106781
30
0
11
105.59109509
21
-68.29215706
31
0
0
LINE
8
CUTLINE
6
CONTINUOUS
62
1
10
105.59109509
20
-68.29215706
30
0
11
103.89245129
21
-69.21415043
31
0
0
LINE
8
CUTLINE
6
CONTINUOUS
62
1
10
103.89245129
20
-69.21415043
30
0
11
102.9736941
21
-69.55041979
31
0
0
LINE
8
CUTLINE
6
CONTINUOUS
62
1
10
102.9736941
20
-69.55041979
30
0
11
102.01534879
21
-69.79683554
31
0
0
LINE
8
CUTLINE
6
CONTINUOUS
62
1
10
102.01534879
20
-69.79683554
30
0
11
101.02244191
21
-69.94837113
31
0
0
LINE
8
CUTLINE
6
CONTINUOUS
62
1
10
101.02244191
20
-69.94837113
30
0
11
100
21
-70
31
0
0
LINE
8
CUTLINE
6
CONTINUOUS
62
1
10
100
20
-70
30
0
11
98.97755809
21
-69.94837113
31
0
0
LINE
8
CUTLINE
6
CONTINUOUS
62
1
10
98.97755809
20
-69.94837113
30
0
11
97.98465121
21
-69.79683554
31
0
0
LINE
8
CUTLINE
6
CONTINUOUS
62
1
10
97.98465121
20
-69.79683554
30
0
11
97.0263059
21
-69.55041979
31
0
0
LINE
8
CUTLINE
6
CONTINUOUS
62
1
10
97.0263059
20
-69.55041979
30
0
11
96.10754871
21
-69.21415043
31
0
0
LINE
8
CUTLINE
6
CONTINUOUS
62
1
10
96.10754871
20
-69.21415043
30
0
11
94.40890491
21
-68.29215706
31
0
0
LINE
8
CUTLINE
6
CONTINUOUS
62
1
10
94.40890491
20
-68.29215706
30
0
11
92.92893219
21
-67.07106781
31
0
0
LINE
8
CUTLINE
6
CONTINUOUS
62
1
10
92.92893219
20
-67.07106781
30
0
11
91.70784294
21
-65.59109509
31
0
0
LINE
8
CUTLINE
6
CONTINUOUS
62
1
10
91.70784294
20
-65.59109509
30
0
11
90.78584957
21
-63.89245129
31
0
0
LINE
8
CUTLINE
6
CONTINUOUS
62
1
10
90.78584957
20
-63.89245129
30
0
11
90.44958021
21
-62.9736941
31
0
0
LINE
8
CUTLINE
6
CONTINUOUS
62
1
10
90.44958021
20
-62.9736941
30
0
11
90.20316446
21
-62.01534879
31
0
0
LINE
8
CUTLINE
6
CONTINUOUS
62
1
10
90.20316446
20
-62.01534879
30
0
11
90.05162887
21
-61.02244191
31
0
0
LINE
8
CUTLINE
6
CONTINUOUS
62
1
10
90.05162887
20
-61.02244191
30
0
11
90
21
-60
31
0
0
LINE
8
CUTLINE
6
CONTINUOUS
62
1
10
90
20
-60
30
0
11
90.05162887
21
-58.97755809
31
0
0
LINE
8
CUTLINE
6
CONTINUOUS
62
1
10
90.05162887
20
-58.97755809
30
0
11
90.20316446
21
-57.98465121
31
0
0
LINE
8
CUTLINE
6
CONTINUOUS
62
1
10
90.20316446
20
-57.98465121
30
0
11
90.44958021
21
-57.0263059
31
0
0
LINE
8
CUTLINE
6
CONTINUOUS
62
1
10
90.44958021
20
-57.0263059
30
0
11
90.78584957
21
-56.10754871
31
0
0
LINE
8
CUTLINE
6
CONTINUOUS
62
1
10
90.78584957
20
-56.10754871
30
0
11
91.70784294
21
-54.40890491
31
0
0
LINE
8
CUTLINE
6
CONTINUOUS
62
1
10
91.70784294
20
-54.40890491
30
0
11
92.92893219
21
-52.92893219
31
0
0
LINE
8
CUTLINE
6
CONTINUOUS
62
1
10
92.92893219
20
-52.92893219
30
0
11
94.40890491
21
-51.70784294
31
0
0
LINE
8
CUTLINE
6
CONTINUOUS
62
1
10
94.40890491
20
-51.70784294
30
0
11
96.10754871
21
-50.78584957
31
0
0
LINE
8
CUTLINE
6
CONTINUOUS
62
1
10
96.10754871
20
-50.78584957
30
0
11
97.0263059
21
-50.44958021
31
0
0
LINE
8
CUTLINE
6
CONTINUOUS
62
1
10
97.0263059
20
-50.44958021
30
0
11
97.98465121
21
-50.20316446
31
0
0
LINE
8
CUTLINE
6
CONTINUOUS
62
1
10
97.98465121
20
-50.20316446
30
0
11
98.97755809
21
-50.05162887
31
0
0
LINE
8
CUTLINE
6
CONTINUOUS
62
1
10
98.97755809
20
-50.05162887
30
0
11
100
21
-50
31
0
0
ENDSEC
0
EOF
